<svg xmlns="http://www.w3.org/2000/svg" xmlns:xlink="http://www.w3.org/1999/xlink" version="1.1" width="256" height="256" viewBox="0 0 256 256" xml:space="preserve">

<defs>
</defs>
<g style="stroke: none; stroke-width: 0; stroke-dasharray: none; stroke-linecap: butt; stroke-linejoin: miter; stroke-miterlimit: 10; fill: none; fill-rule: nonzero; opacity: 1;" transform="translate(1.4065934065934016 1.4065934065934016) scale(2.81 2.81)" >
	<path d="M 89.707 27.193 l -26.9 -26.9 c -0.391 -0.391 -1.023 -0.391 -1.414 0 l -7.504 7.504 c -0.391 0.391 -0.391 1.023 0 1.414 l 2.682 2.682 L 31.91 29.975 c -3.021 -2.909 -7.841 -2.879 -10.818 0.098 l -2.747 2.748 c -0.391 0.391 -0.391 1.023 0 1.414 l 15.787 15.787 L 18.81 65.344 c -4.515 4.516 -8.705 9.422 -12.454 14.582 l -6.165 8.486 c -0.289 0.398 -0.246 0.947 0.102 1.295 C 0.487 89.9 0.743 90 1 90 c 0.205 0 0.411 -0.063 0.587 -0.191 l 8.486 -6.164 c 5.16 -3.749 10.066 -7.938 14.582 -12.454 l 15.322 -15.322 l 15.788 15.787 c 0.195 0.195 0.451 0.293 0.707 0.293 s 0.512 -0.098 0.707 -0.293 l 2.747 -2.747 c 2.978 -2.978 3.007 -7.798 0.098 -10.818 l 18.082 -24.661 l 2.682 2.682 c 0.195 0.195 0.451 0.293 0.707 0.293 s 0.512 -0.098 0.707 -0.293 l 7.504 -7.504 C 90.098 28.217 90.098 27.584 89.707 27.193 z M 38.564 54.454 L 23.242 69.776 c -4.442 4.441 -9.268 8.563 -14.344 12.25 l -3.38 2.455 l 2.456 -3.38 c 3.687 -5.076 7.809 -9.902 12.25 -14.344 l 15.322 -15.322 l 1.51 1.51 L 38.564 54.454 z M 58.513 67.494 l -2.04 2.04 L 38.469 51.531 l -2.217 -2.217 c 0 0 0 0 0 0 L 20.465 33.528 l 2.04 -2.041 c 2.234 -2.232 5.867 -2.231 8.099 0 l 0.504 0.504 l 26.9 26.9 l 0.504 0.504 C 60.745 61.628 60.745 65.262 58.513 67.494 z M 58.599 56.653 L 33.347 31.401 l 24.655 -18.077 l 18.674 18.674 L 58.599 56.653 z M 81.496 33.99 l -2.8 -2.8 L 58.81 11.303 c 0 0 -0.001 -0.001 -0.002 -0.001 L 56.01 8.504 l 6.09 -6.09 L 87.586 27.9 L 81.496 33.99 z" style="stroke: none; stroke-width: 1; stroke-dasharray: none; stroke-linecap: butt; stroke-linejoin: miter; stroke-miterlimit: 10; fill: rgb(255,255,255); fill-rule: nonzero; opacity: 1;" transform=" matrix(1 0 0 1 0 0) " stroke-linecap="round" />
</g>
</svg>